<svg xmlns="http://www.w3.org/2000/svg" viewBox="0 0 400 400">
  <rect width="400" height="400" fill="#f0f0f0" />
  <path d="M200 280c-44.18 0-80-35.82-80-80s35.82-80 80-80 80 35.82 80 80-35.82 80-80 80zm0-140c-33.08 0-60 26.92-60 60s26.92 60 60 60 60-26.92 60-60-26.92-60-60-60z" fill="#d1d5db" />
  <path d="M200 230c-16.54 0-30-13.46-30-30s13.46-30 30-30 30 13.46 30 30-13.46 30-30 30z" fill="#9ca3af" />
  <path d="M140 340h120v-20H140v20zm0-260v20h120V80H140z" fill="#6b7280" />
  <path d="M160 100h80v200h-80z" fill="#e5e7eb" />
</svg>