<?xml version="1.0" encoding="UTF-8"?>
<svg id="Layer_2" xmlns="http://www.w3.org/2000/svg" version="1.1" viewBox="0 0 511.1 781.4">
  <!-- Generator: Adobe Illustrator 29.4.0, SVG Export Plug-In . SVG Version: 2.1.0 Build 152)  -->
  <defs>
    <style>
      .st0 {
        fill: #e15a4f;
      }
    </style>
  </defs>
  <g id="Layer_1-2">
    <g>
      <path class="st0" d="M250.1.3c14.1-2.4,24.2,9,33.8,17.7,55.7,50.8,98.5,129.3,119.7,201.3,19.2,64.9,23.6,133.8,16.9,201.1,38.1,32.2,68.7,74.7,81.5,123.5,17.3,66,8.1,144.1-14.7,207.7-4.8,13.4-9.3,33.9-28,29-9.6-2.5-14.9-24.1-19.1-32.9-14.5-30.5-39.3-59.3-64.9-81.2-3.5-3-21.8-17.9-24.6-18.2-1.6-.2-5,1.7-7.8,1.8-57.5,2.8-117.3-2.2-175.1,0-10.1-4.4-15.3,2.2-22.9,8-26.4,20.1-54.1,49.9-69.7,79.3-5.8,10.9-10.3,28.2-16,37-3.8,5.9-10.3,7.8-17.1,6.4-9-1.9-11.4-11.1-14.5-18.5-30.9-75.8-40.3-180-5.1-255.6,16-34.4,39.6-62.2,67.7-87.3-.2-8.2-.5-16.5-.8-24.8-4.8-126.4,23.6-245.2,105-344C203.3,39.8,237.9,2.4,250.1.3ZM330.3,612.1c18.3-48.8,36.1-98.2,45.8-149.7,26.9-142-2.8-283.1-97.2-393.2-5.6-6.5-14.9-17.6-21-23-.9-.8-1.5-1.9-2.9-1.8-3.4.3-26.4,26.4-30.2,30.8-100.7,120-119.1,285.8-78,434,9.7,34.9,23.1,68.6,34.6,102.9h148.8s0,0,0,0ZM98.4,467.1c-.9-1.1-5.3,3.7-6,4.5-54.6,56.7-63.9,129.2-50.5,204.5.7,4.1,6,31,8,32,21.7-38.9,56.5-68,92.2-93.5-18.7-47.6-35.5-96.9-43.8-147.5h0ZM414.8,468.6c-.7-.7,0-1.9-1.4-1.5-10,50.7-25.4,100.2-43.9,148.4,28.2,21,56.1,43.3,77.3,71.7,5.3,7.1,9.6,14.7,14.6,21.9,22.8-86.5,17.9-173.8-46.6-240.5h0Z"/>
      <path class="st0" d="M334.8,277.4c0,43.9-35.5,79.4-79.4,79.4s-79.4-35.5-79.4-79.4,35.6-79.4,79.4-79.4,79.4,35.6,79.4,79.4ZM298,277.3c0-23.4-19-42.4-42.4-42.4s-42.4,19-42.4,42.4,19,42.4,42.4,42.4,42.4-19,42.4-42.4Z"/>
    </g>
  </g>
</svg>