<?xml version="1.0" encoding="UTF-8" standalone="no"?>
<svg xmlns="http://www.w3.org/2000/svg" version="1.1" width="180" height="180" viewBox="0 0 180 180">
  <!-- Background circle with light teal fill -->
  <circle cx="90" cy="90" r="90" fill="#1E3A8A"/>
  
  <!-- BB Logo centered on the background -->
  <g transform="translate(25, 25) scale(0.72)">
    <!-- This is a simplified representation of the BB logo -->
    <path d="M43.5,30c-1.6-5.1-4.1-9-10.6-9.9c6.3-1.5,9.8-4.3,9.8-10.5c0-7.6-5.8-9.6-14.4-9.6H8.6v60h21.9c9.3,0,19.4-3.1,19.4-13.7C49.9,38.9,46.5,33.1,43.5,30z
    M22.5,13.2h3.4c2.5,0,6.3,0.5,6.3,3.9c0,3.8-3.4,4.4-6.3,4.4h-3.4V13.2z M27.4,47h-4.9V34.3h5c3.4,0,7.6,0.5,7.6,6.3C35.1,45.5,31.3,47,27.4,47z" fill="#88DCD6"/>
    <path d="M93.5,30c-1.6-5.1-4.1-9-10.6-9.9c6.3-1.5,9.8-4.3,9.8-10.5c0-7.6-5.8-9.6-14.4-9.6H58.6v60h21.9c9.3,0,19.4-3.1,19.4-13.7C99.9,38.9,96.5,33.1,93.5,30z
    M72.5,13.2h3.4c2.5,0,6.3,0.5,6.3,3.9c0,3.8-3.4,4.4-6.3,4.4h-3.4V13.2z M77.4,47h-4.9V34.3h5c3.4,0,7.6,0.5,7.6,6.3C85.1,45.5,81.3,47,77.4,47z" fill="#88DCD6"/>
  </g>
</svg>